# This file uses centimeters as units for non-parametric coordinates.

mtllib Platform.mtl
g default
v 12.332949 8.650250 -5.869586
v 11.900176 8.650250 -6.517277
v 11.252485 8.650250 -6.950051
v 10.488482 8.650250 -7.102021
v 9.724479 8.650250 -6.950052
v 9.076788 8.650250 -6.517279
v 8.644014 8.650250 -5.869588
v 8.492044 8.650250 -5.105585
v 8.644014 8.650250 -4.341581
v 9.076787 8.650250 -3.693890
v 9.724477 8.650250 -3.261116
v 10.488481 8.650250 -3.109146
v 11.252484 8.650250 -3.261116
v 11.900175 8.650250 -3.693890
v 12.332949 8.650250 -4.341580
v 12.484919 8.650250 -5.105584
v 14.177417 8.650250 -6.633589
v 13.311871 8.650250 -7.928971
v 12.016490 8.650250 -8.794518
v 10.488483 8.650250 -9.098458
v 8.960476 8.650250 -8.794520
v 7.665094 8.650250 -7.928974
v 6.799546 8.650250 -6.633592
v 6.495607 8.650250 -5.105585
v 6.799545 8.650250 -3.577578
v 7.665092 8.650250 -2.282196
v 8.960474 8.650250 -1.416649
v 10.488481 8.650250 -1.112709
v 12.016488 8.650250 -1.416649
v 13.311870 8.650250 -2.282195
v 14.177416 8.650250 -3.577577
v 14.481356 8.650250 -5.105584
v 14.177417 8.862012 -6.633589
v 13.311871 8.862012 -7.928971
v 12.016490 8.862012 -8.794518
v 10.488483 8.862012 -9.098458
v 8.960476 8.862012 -8.794520
v 7.665094 8.862012 -7.928974
v 6.799546 8.862012 -6.633592
v 6.495607 8.862012 -5.105585
v 6.799545 8.862012 -3.577578
v 7.665092 8.862012 -2.282196
v 8.960474 8.862012 -1.416649
v 10.488481 8.862012 -1.112709
v 12.016488 8.862012 -1.416649
v 13.311870 8.862012 -2.282195
v 14.177416 8.862012 -3.577577
v 14.481356 8.862012 -5.105584
v 12.332949 8.862012 -5.869586
v 11.900176 8.862012 -6.517277
v 11.252485 8.862012 -6.950051
v 10.488482 8.862012 -7.102021
v 9.724479 8.862012 -6.950052
v 9.076788 8.862012 -6.517279
v 8.644014 8.862012 -5.869588
v 8.492044 8.862012 -5.105585
v 8.644014 8.862012 -4.341581
v 9.076787 8.862012 -3.693890
v 9.724477 8.862012 -3.261116
v 10.488481 8.862012 -3.109146
v 11.252484 8.862012 -3.261116
v 11.900175 8.862012 -3.693890
v 12.332949 8.862012 -4.341580
v 12.484919 8.862012 -5.105584
v 10.488481 8.650250 -5.105584
v 10.488481 8.862012 -5.105584
vt 0.956114 0.092163
vt 0.950926 0.084399
vt 0.943162 0.079211
vt 0.934004 0.077390
vt 0.924846 0.079211
vt 0.917082 0.084399
vt 0.911894 0.092163
vt 0.910072 0.101321
vt 0.911894 0.110480
vt 0.917082 0.118244
vt 0.924846 0.123431
vt 0.934004 0.125253
vt 0.943162 0.123431
vt 0.950926 0.118244
vt 0.956114 0.110480
vt 0.957936 0.101321
vt 0.978224 0.083005
vt 0.967848 0.067477
vt 0.952320 0.057101
vt 0.934004 0.053458
vt 0.915687 0.057101
vt 0.900159 0.067477
vt 0.889784 0.083005
vt 0.886141 0.101321
vt 0.889784 0.119638
vt 0.900159 0.135166
vt 0.915687 0.145541
vt 0.934004 0.149185
vt 0.952320 0.145541
vt 0.967848 0.135166
vt 0.978224 0.119638
vt 0.981867 0.101321
vt 0.960108 0.690961
vt 0.852151 0.852851
vt 0.834293 0.834957
vt 0.936773 0.681277
vt 0.690583 0.961023
vt 0.680917 0.937642
vt 0.500000 0.999007
vt 0.500000 0.973702
vt 0.309418 0.961023
vt 0.319082 0.937642
vt 0.147849 0.852851
vt 0.165708 0.834958
vt 0.039893 0.690962
vt 0.063227 0.681278
vt 0.001984 0.500000
vt 0.027240 0.500000
vt 0.039893 0.309038
vt 0.063227 0.318723
vt 0.147850 0.147149
vt 0.165708 0.165043
vt 0.309417 0.038977
vt 0.319083 0.062358
vt 0.500000 0.000993
vt 0.500000 0.026299
vt 0.690582 0.038978
vt 0.680918 0.062357
vt 0.852150 0.147149
vt 0.834292 0.165043
vt 0.960108 0.309038
vt 0.936773 0.318723
vt 0.998015 0.500000
vt 0.972761 0.500000
vt 0.667147 0.667477
vt 0.718385 0.590642
vt 0.590458 0.718825
vt 0.500002 0.736847
vt 0.409540 0.718823
vt 0.332854 0.667479
vt 0.281613 0.590637
vt 0.263622 0.500001
vt 0.281612 0.409362
vt 0.332855 0.332521
vt 0.409542 0.281180
vt 0.499998 0.263149
vt 0.590460 0.281179
vt 0.667148 0.332521
vt 0.718384 0.409363
vt 0.736383 0.499995
vt 0.499998 0.499999
vt 0.934004 0.101321
vn 0.000000 -1.000000 -0.000000
vn 0.000000 -1.000000 -0.000000
vn 0.000000 -1.000000 -0.000000
vn 0.000000 -1.000000 -0.000000
vn 0.000000 -1.000000 -0.000000
vn 0.000000 -1.000000 -0.000000
vn 0.000000 -1.000000 -0.000000
vn 0.000000 -1.000000 -0.000000
vn 0.000000 -1.000000 -0.000000
vn 0.000000 -1.000000 -0.000000
vn 0.000000 -1.000000 -0.000000
vn 0.000000 -1.000000 0.000000
vn 0.000000 -1.000000 0.000000
vn 0.000000 -1.000000 0.000000
vn 0.000000 -1.000000 0.000000
vn 0.000000 -1.000000 0.000000
vn 0.000000 -1.000000 0.000000
vn 0.000000 -1.000000 0.000000
vn 0.000000 -1.000000 0.000000
vn 0.000000 -1.000000 0.000000
vn 0.000000 -1.000000 0.000000
vn 0.000000 -1.000000 0.000000
vn 0.000000 -1.000000 0.000000
vn 0.000000 -1.000000 0.000000
vn 0.000000 -1.000000 0.000000
vn 0.000000 -1.000000 0.000000
vn 0.000000 -1.000000 0.000000
vn 0.000000 -1.000000 0.000000
vn 0.000000 -1.000000 0.000000
vn 0.000000 -1.000000 0.000000
vn 0.000000 -1.000000 0.000000
vn 0.000000 -1.000000 0.000000
vn 0.923880 0.000000 -0.382683
vn 0.707107 0.000000 -0.707106
vn 0.707107 0.000000 -0.707106
vn 0.923880 0.000000 -0.382683
vn 0.382684 0.000000 -0.923879
vn 0.382684 0.000000 -0.923879
vn 0.000001 0.000000 -1.000000
vn 0.000001 0.000000 -1.000000
vn -0.382683 0.000000 -0.923880
vn -0.382683 0.000000 -0.923880
vn -0.707106 0.000000 -0.707107
vn -0.707106 0.000000 -0.707107
vn -0.923879 0.000000 -0.382684
vn -0.923879 0.000000 -0.382684
vn -1.000000 0.000000 -0.000000
vn -1.000000 0.000000 -0.000000
vn -0.923880 0.000000 0.382683
vn -0.923880 0.000000 0.382683
vn -0.707107 0.000000 0.707107
vn -0.707107 0.000000 0.707107
vn -0.382684 0.000000 0.923879
vn -0.382684 0.000000 0.923879
vn 0.000000 0.000000 1.000000
vn 0.000000 0.000000 1.000000
vn 0.382683 0.000000 0.923880
vn 0.382683 0.000000 0.923880
vn 0.707107 0.000000 0.707107
vn 0.707107 0.000000 0.707107
vn 0.923880 0.000000 0.382684
vn 0.923880 0.000000 0.382684
vn 1.000000 0.000000 0.000000
vn 1.000000 0.000000 0.000000
vn 0.000000 1.000000 -0.000000
vn 0.000000 1.000000 -0.000000
vn 0.000000 1.000000 -0.000000
vn 0.000000 1.000000 -0.000000
vn 0.000000 1.000000 -0.000000
vn 0.000000 1.000000 -0.000000
vn 0.000000 1.000000 -0.000000
vn 0.000000 1.000000 0.000000
vn 0.000000 1.000000 -0.000000
vn 0.000000 1.000000 -0.000000
vn 0.000000 1.000000 0.000000
vn 0.000000 1.000000 -0.000000
vn 0.000000 1.000000 0.000000
vn 0.000000 1.000000 0.000000
vn 0.000000 1.000000 0.000000
vn 0.000000 1.000000 0.000000
vn 0.000000 1.000000 0.000000
vn 0.000000 1.000000 -0.000000
vn 0.000000 1.000000 0.000000
vn 0.000000 1.000000 -0.000000
vn 0.000000 1.000000 0.000000
vn 0.000000 1.000000 0.000000
vn 0.000000 1.000000 0.000000
vn 0.000000 1.000000 0.000000
vn 0.000000 1.000000 0.000000
vn 0.000000 1.000000 0.000000
vn 0.000000 1.000000 -0.000000
vn 0.000000 1.000000 -0.000000
vn 0.000000 1.000000 -0.000000
vn 0.000000 1.000000 -0.000000
vn 0.000000 1.000000 0.000000
vn 0.000000 1.000000 0.000000
vn 0.000000 -1.000000 0.000000
vn 0.000000 1.000000 -0.000000
s 1
g pasted__pCylinder1 group5
usemtl lambert15SG
f 1/1/1 2/2/2 18/18/3 17/17/4
f 2/2/2 3/3/5 19/19/6 18/18/3
f 3/3/5 4/4/7 20/20/8 19/19/6
f 4/4/7 5/5/9 21/21/10 20/20/8
f 5/5/9 6/6/11 22/22/12 21/21/10
f 6/6/11 7/7/13 23/23/14 22/22/12
f 7/7/13 8/8/15 24/24/16 23/23/14
f 8/8/15 9/9/17 25/25/18 24/24/16
f 9/9/17 10/10/19 26/26/20 25/25/18
f 10/10/19 11/11/21 27/27/22 26/26/20
f 11/11/21 12/12/23 28/28/24 27/27/22
f 12/12/23 13/13/25 29/29/26 28/28/24
f 13/13/25 14/14/27 30/30/28 29/29/26
f 14/14/27 15/15/29 31/31/30 30/30/28
f 15/15/29 16/16/31 32/32/32 31/31/30
f 16/16/31 1/1/1 17/17/4 32/32/32
s 2
f 17/33/33 18/34/34 34/35/35 33/36/36
f 18/34/34 19/37/37 35/38/38 34/35/35
f 19/37/37 20/39/39 36/40/40 35/38/38
f 20/39/39 21/41/41 37/42/42 36/40/40
f 21/41/41 22/43/43 38/44/44 37/42/42
f 22/43/43 23/45/45 39/46/46 38/44/44
f 23/45/45 24/47/47 40/48/48 39/46/46
f 24/47/47 25/49/49 41/50/50 40/48/48
f 25/49/49 26/51/51 42/52/52 41/50/50
f 26/51/51 27/53/53 43/54/54 42/52/52
f 27/53/53 28/55/55 44/56/56 43/54/54
f 28/55/55 29/57/57 45/58/58 44/56/56
f 29/57/57 30/59/59 46/60/60 45/58/58
f 30/59/59 31/61/61 47/62/62 46/60/60
f 31/61/61 32/63/63 48/64/64 47/62/62
f 32/63/63 17/33/33 33/36/36 48/64/64
s 3
f 33/36/65 34/35/66 50/65/67 49/66/68
f 34/35/66 35/38/69 51/67/70 50/65/67
f 35/38/69 36/40/71 52/68/72 51/67/70
f 36/40/71 37/42/73 53/69/74 52/68/72
f 37/42/73 38/44/75 54/70/76 53/69/74
f 38/44/75 39/46/77 55/71/78 54/70/76
f 39/46/77 40/48/79 56/72/80 55/71/78
f 40/48/79 41/50/81 57/73/82 56/72/80
f 41/50/81 42/52/83 58/74/84 57/73/82
f 42/52/83 43/54/85 59/75/86 58/74/84
f 43/54/85 44/56/87 60/76/88 59/75/86
f 44/56/87 45/58/89 61/77/90 60/76/88
f 45/58/89 46/60/91 62/78/92 61/77/90
f 46/60/91 47/62/93 63/79/94 62/78/92
f 47/62/93 48/64/95 64/80/96 63/79/94
f 48/64/95 33/36/65 49/66/68 64/80/96
s 1
f 2/2/2 1/1/1 65/82/97
f 3/3/5 2/2/2 65/82/97
f 4/4/7 3/3/5 65/82/97
f 5/5/9 4/4/7 65/82/97
f 6/6/11 5/5/9 65/82/97
f 7/7/13 6/6/11 65/82/97
f 8/8/15 7/7/13 65/82/97
f 9/9/17 8/8/15 65/82/97
f 10/10/19 9/9/17 65/82/97
f 11/11/21 10/10/19 65/82/97
f 12/12/23 11/11/21 65/82/97
f 13/13/25 12/12/23 65/82/97
f 14/14/27 13/13/25 65/82/97
f 15/15/29 14/14/27 65/82/97
f 16/16/31 15/15/29 65/82/97
f 1/1/1 16/16/31 65/82/97
s 3
f 49/66/68 50/65/67 66/81/98
f 50/65/67 51/67/70 66/81/98
f 51/67/70 52/68/72 66/81/98
f 52/68/72 53/69/74 66/81/98
f 53/69/74 54/70/76 66/81/98
f 54/70/76 55/71/78 66/81/98
f 55/71/78 56/72/80 66/81/98
f 56/72/80 57/73/82 66/81/98
f 57/73/82 58/74/84 66/81/98
f 58/74/84 59/75/86 66/81/98
f 59/75/86 60/76/88 66/81/98
f 60/76/88 61/77/90 66/81/98
f 61/77/90 62/78/92 66/81/98
f 62/78/92 63/79/94 66/81/98
f 63/79/94 64/80/96 66/81/98
f 64/80/96 49/66/68 66/81/98
