# This file uses centimeters as units for non-parametric coordinates.

mtllib Tree_branch_small.mtl
g pasted__pasted__pasted__default1
v 2.096475 -0.450871 -1.287053
v 2.383114 -0.450871 0.485408
v 2.285909 1.610554 0.545413
v 1.985313 1.610554 -1.313356
v 0.633425 0.361850 -1.056930
v 0.859043 0.379560 0.395158
v 0.951505 1.586564 0.174022
v 0.766937 1.567998 -0.934430
v -1.342465 1.485764 -0.136765
v -1.287825 1.535624 0.143005
v -1.225331 2.170868 0.109889
v -1.283896 2.118582 -0.193574
v -2.481903 2.614113 0.319418
v -2.450480 2.643159 0.479153
v -2.417103 3.013241 0.435743
v -2.450085 2.982779 0.268004
v -3.778505 2.894835 0.563087
v -3.765093 2.891215 0.626282
v -3.751736 3.069516 0.583697
v -3.762020 3.054841 0.547537
v -0.138678 1.738186 0.003125
v -0.207167 0.858543 0.204920
v -0.329970 0.829959 -0.521676
v -0.231947 1.708214 -0.476038
v -1.870360 2.626792 0.286253
v -1.919357 2.135066 0.306906
v -1.956742 2.096467 0.129468
v -1.918274 2.586318 0.030817
v -3.243185 3.048073 0.527323
v -3.264059 2.796696 0.571144
v -3.283833 2.776967 0.475147
v -3.261603 3.027381 0.445159
v 0.916288 1.033516 0.383798
v -0.164019 1.433700 0.183894
v -1.248203 1.845614 0.199494
v -1.886444 2.375020 0.368517
v -2.427433 2.823758 0.511782
v -3.247906 2.919371 0.597289
v -3.752997 2.978224 0.649924
v -3.774361 2.963896 0.524447
v -3.278023 2.899165 0.420376
v -2.471781 2.794016 0.251336
v -1.945362 2.335507 0.022461
v -1.324318 1.794571 -0.247566
v -0.289742 1.397019 -0.559970
v 0.686634 1.010792 -1.092247
v 2.042230 0.796393 -1.299887
v 2.335682 0.796393 0.514691
v -2.070086 2.808064 0.146388
v -2.022339 2.828606 0.277738
v -2.299153 2.964581 0.243695
v -2.275345 2.980563 0.339781
v -2.184021 3.120761 0.206502
v -2.164282 3.128804 0.266300
v -2.273134 3.079592 0.248772
v -2.263062 3.085843 0.292432
v -2.399635 3.616486 0.219587
v -2.387688 3.621358 0.255782
v -2.453573 3.591567 0.245173
v -2.447472 3.595351 0.271597
v -0.609123 1.637950 0.300465
v -1.062384 1.848179 0.290974
v -0.587713 1.914332 0.260200
v -1.049784 2.014182 0.241608
v -1.206715 2.078293 1.094957
v -1.415112 2.151644 1.097960
v -1.199244 2.174727 1.080909
v -1.410715 2.209563 1.080732
v 2.135807 1.860274 -0.382767
v 0.859340 1.773541 -0.379485
v -0.185251 1.838345 -0.236146
v -1.254576 2.144759 -0.041646
v -1.894285 2.606581 0.158701
v -2.046181 2.818347 0.212147
v -2.174139 3.124787 0.236440
v -2.393654 3.618926 0.237708
v -2.450518 3.593461 0.258402
v -2.268091 3.082720 0.270631
v -2.287234 2.972582 0.291800
v -2.433573 2.998030 0.351983
v -3.252382 3.037741 0.486294
v -3.756870 3.062188 0.565641
v -3.763664 2.971070 0.587266
v -3.771790 2.893023 0.594725
v -3.273934 2.786845 0.523208
v -2.466171 2.628657 0.399388
v -1.938027 2.115792 0.218302
v -1.315109 1.510727 0.003302
v -0.268488 0.899692 -0.157906
v 0.746378 0.306065 -0.329945
v 2.239981 -0.723843 -0.399674
vt 0.077512 0.218901
vt 0.076247 0.220563
vt 0.122267 0.265086
vt 0.117913 0.268641
vt 0.104563 0.276416
vt 0.057102 0.232528
vt 0.056662 0.232783
vt 0.078950 0.216984
vt 0.195290 0.340327
vt 0.188045 0.348483
vt 0.125509 0.260363
vt 0.168327 0.358501
vt 0.089052 0.286221
vt 0.083873 0.288892
vt 0.055997 0.233085
vt 0.266932 0.403848
vt 0.260867 0.412569
vt 0.202563 0.332060
vt 0.234015 0.421501
vt 0.147220 0.369248
vt 0.139292 0.374671
vt 0.079024 0.291795
vt 0.358147 0.468491
vt 0.347670 0.482924
vt 0.274219 0.396157
vt 0.311802 0.498204
vt 0.204928 0.431404
vt 0.130869 0.380352
vt 0.492571 0.538725
vt 0.472508 0.581832
vt 0.369153 0.454722
vt 0.404946 0.614116
vt 0.270118 0.513908
vt 0.184506 0.112806
vt 0.179856 0.451945
vt 0.626817 0.599997
vt 0.582305 0.679930
vt 0.518418 0.498293
vt 0.508866 0.720933
vt 0.254332 0.525972
vt 0.193447 0.443038
vt 0.193746 0.090548
vt 0.294695 0.150879
vt 0.212641 0.057064
vt 0.237312 0.535864
vt 0.662972 0.517295
vt 0.442046 0.757860
vt 0.358992 0.638941
vt 0.326309 0.651300
vt 0.197204 0.083848
vt 0.299301 0.138224
vt 0.307922 0.124355
vt 0.200481 0.077019
vt 0.296286 0.668381
vt 0.368275 0.780075
vt 0.300815 0.135241
vt 0.295766 0.805828
vt 0.159877 0.118299
vt 0.127740 0.062829
vt 0.301990 0.137778
vt 0.296080 0.152456
vt 0.184903 0.117375
vt 0.133998 0.049816
vt 0.163921 0.127975
vt 0.139646 0.036497
vt 0.310210 0.124375
vt 0.202156 0.033649
vt 0.216683 0.054691
vt 0.212463 0.031456
vt 0.212399 0.310196
vt 0.278813 0.364046
vt 0.368572 0.414398
vt 0.134943 0.246811
vt 0.507652 0.428106
vt 0.081519 0.208504
vt 0.655090 0.437794
vt 0.070883 0.212520
vt 0.830048 0.441657
vt 0.855859 0.595525
vt 0.065962 0.222892
vt 0.825450 0.708051
vt 0.178389 0.414583
vt 0.153270 0.388724
vt 0.760823 0.802230
vt 0.360015 0.569924
vt 0.318452 0.523770
vt 0.300894 0.528739
vt 0.173990 0.416265
vt 0.149500 0.391021
vt 0.621505 0.862061
vt 0.335492 0.574671
vt 0.168528 0.419210
vt 0.146273 0.391717
vt 0.053278 0.223156
vt 0.539393 0.903265
vt 0.210849 0.565698
vt 0.164165 0.477281
vt 0.115694 0.395647
vt 0.064216 0.298792
vt 0.045435 0.233113
vt 0.429674 0.928383
vt 0.260419 0.682673
vt 0.318067 0.962116
vt 0.223628 0.813823
vt 0.220800 0.983554
vt 0.677992 0.256795
vt 0.714597 0.255618
vt 0.723069 0.254887
vt 0.666101 0.270558
vt 0.492661 0.136781
vt 0.537836 0.100214
vt 0.633714 0.089983
vt 0.666261 0.077956
vt 0.877498 0.072046
vt 0.984933 0.073230
vt 0.829835 0.248255
vt 0.782424 0.248394
vn -0.353494 -0.921009 0.163657
vn -0.066175 -0.505735 0.860147
vn 0.062005 0.192686 0.979299
vn -0.978165 0.116287 0.172254
vn -0.527718 -0.843481 0.100268
vn -0.412040 -0.608530 0.678170
vn -0.365126 -0.506431 0.781160
vn -0.506798 -0.858035 0.083255
vn -0.412040 -0.608530 0.678170
vn -0.109620 0.037694 0.993259
vn -0.120804 0.090983 0.988498
vn -0.365126 -0.506431 0.781160
vn -0.155391 0.564947 0.810363
vn -0.090219 0.995215 0.037514
vn -0.051584 0.998370 -0.024411
vn -0.095641 0.696063 0.711582
vn -0.180428 0.019524 -0.983394
vn -0.502275 -0.685405 -0.527200
vn -0.479741 -0.530379 -0.698961
vn -0.279204 0.052239 -0.958810
vn -0.506798 -0.858035 0.083255
vn -0.365126 -0.506431 0.781160
vn -0.382279 -0.533968 0.754149
vn -0.465803 -0.877624 0.113156
vn -0.365126 -0.506431 0.781160
vn -0.120804 0.090983 0.988498
vn -0.044787 0.154905 0.986914
vn -0.382279 -0.533968 0.754149
vn -0.095641 0.696063 0.711582
vn -0.051584 0.998370 -0.024411
vn 0.127149 0.987831 -0.089572
vn 0.141472 0.778627 0.611331
vn -0.279204 0.052239 -0.958810
vn -0.479741 -0.530379 -0.698961
vn -0.599939 -0.585643 -0.545064
vn -0.383616 0.082210 -0.919826
vn -0.525410 -0.831456 0.180626
vn -0.280932 -0.452025 0.846611
vn -0.177581 -0.447931 0.876255
vn -0.621614 -0.735296 0.270066
vn -0.280932 -0.452025 0.846611
vn 0.031948 -0.059518 0.997716
vn 0.282385 0.041655 0.958396
vn -0.177581 -0.447931 0.876255
vn 0.448212 0.763559 0.464847
vn 0.366134 0.913054 -0.179664
vn 0.565334 0.787509 -0.245411
vn 0.558470 0.476938 0.678706
vn -0.362821 -0.017103 -0.931702
vn -0.585846 -0.533921 -0.609683
vn -0.696149 -0.488647 -0.525929
vn -0.447724 -0.080415 -0.890549
vn -0.420709 -0.870430 0.255647
vn -0.052630 -0.439966 0.896471
vn 0.005406 -0.499458 0.866321
vn -0.164679 -0.967111 0.193848
vn -0.052630 -0.439966 0.896471
vn 0.230386 0.129436 0.964453
vn 0.109992 0.146458 0.983083
vn 0.005406 -0.499458 0.866321
vn 0.274838 0.549084 0.789285
vn 0.027004 0.979123 -0.201466
vn 0.011161 0.974834 -0.222654
vn 0.119769 0.683717 0.719852
vn -0.340730 -0.080107 -0.936742
vn -0.532178 -0.560929 -0.634149
vn -0.267383 -0.655994 -0.705817
vn -0.224503 -0.101722 -0.969150
vn -0.382279 -0.533968 0.754149
vn -0.044787 0.154905 0.986914
vn 0.031948 -0.059518 0.997716
vn -0.280932 -0.452025 0.846611
vn -0.465803 -0.877624 0.113156
vn -0.382279 -0.533968 0.754149
vn -0.280932 -0.452025 0.846611
vn -0.525410 -0.831456 0.180626
vn -0.383616 0.082210 -0.919826
vn -0.599939 -0.585643 -0.545064
vn -0.585846 -0.533921 -0.609683
vn -0.362821 -0.017103 -0.931702
vn 0.141472 0.778627 0.611331
vn 0.127149 0.987831 -0.089572
vn 0.366134 0.913054 -0.179664
vn 0.448212 0.763559 0.464847
vn -0.177581 -0.447931 0.876255
vn 0.282385 0.041655 0.958396
vn 0.230386 0.129436 0.964453
vn -0.052630 -0.439966 0.896471
vn -0.621614 -0.735296 0.270066
vn -0.177581 -0.447931 0.876255
vn -0.052630 -0.439966 0.896471
vn -0.420709 -0.870430 0.255647
vn -0.447724 -0.080415 -0.890549
vn -0.696149 -0.488647 -0.525929
vn -0.532178 -0.560929 -0.634149
vn -0.340730 -0.080107 -0.936742
vn 0.438923 0.239828 0.865927
vn 0.825953 0.453238 -0.335227
vn -0.943268 -0.216509 0.251734
vn 0.015337 0.069552 0.997460
vn 0.005406 -0.499458 0.866321
vn 0.109992 0.146458 0.983083
vn 0.062005 0.192686 0.979299
vn -0.066175 -0.505735 0.860147
vn -0.164679 -0.967111 0.193848
vn 0.005406 -0.499458 0.866321
vn -0.066175 -0.505735 0.860147
vn -0.353494 -0.921009 0.163657
vn -0.224503 -0.101722 -0.969150
vn -0.267383 -0.655994 -0.705817
vn -0.341774 -0.641414 -0.686861
vn -0.271434 -0.083126 -0.958861
vn 0.119769 0.683717 0.719852
vn 0.011161 0.974834 -0.222654
vn -0.227245 0.945095 -0.234850
vn 0.058187 0.702746 0.709058
vn -0.120804 0.090983 0.988498
vn -0.095641 0.696063 0.711582
vn 0.141472 0.778627 0.611331
vn -0.044787 0.154905 0.986914
vn -0.694279 -0.717333 0.058393
vn 0.037282 -0.855150 0.517039
vn 0.494512 0.857536 0.141736
vn -0.287926 0.917445 -0.274579
vn 0.282385 0.041655 0.958396
vn 0.031948 -0.059518 0.997716
vn 0.448212 0.763559 0.464847
vn 0.558470 0.476938 0.678706
vn 0.230386 0.129436 0.964453
vn 0.282385 0.041655 0.958396
vn 0.558470 0.476938 0.678706
vn 0.274838 0.549084 0.789285
vn 0.109992 0.146458 0.983083
vn 0.230386 0.129436 0.964453
vn 0.274838 0.549084 0.789285
vn 0.119769 0.683717 0.719852
vn 0.062005 0.192686 0.979299
vn 0.109992 0.146458 0.983083
vn 0.119769 0.683717 0.719852
vn 0.058187 0.702746 0.709058
vn -0.978165 0.116287 0.172254
vn 0.062005 0.192686 0.979299
vn 0.058187 0.702746 0.709058
vn -0.227245 0.945095 -0.234850
vn -0.156132 0.446235 -0.881191
vn -0.224503 -0.101722 -0.969150
vn -0.271434 -0.083126 -0.958861
vn -0.228051 0.426432 -0.875299
vn -0.214711 0.364947 -0.905932
vn -0.340730 -0.080107 -0.936742
vn -0.224503 -0.101722 -0.969150
vn -0.156132 0.446235 -0.881191
vn -0.043392 0.415940 -0.908356
vn -0.447724 -0.080415 -0.890549
vn -0.340730 -0.080107 -0.936742
vn -0.214711 0.364947 -0.905932
vn -0.026518 0.528354 -0.848610
vn -0.362821 -0.017103 -0.931702
vn -0.447724 -0.080415 -0.890549
vn -0.043392 0.415940 -0.908356
vn -0.148416 0.632322 -0.760356
vn -0.383616 0.082210 -0.919826
vn -0.362821 -0.017103 -0.931702
vn -0.026518 0.528354 -0.848610
vn -0.201103 0.648874 -0.733840
vn -0.279204 0.052239 -0.958810
vn -0.383616 0.082210 -0.919826
vn -0.148416 0.632322 -0.760356
vn -0.184387 0.631790 -0.752890
vn -0.180428 0.019524 -0.983394
vn -0.279204 0.052239 -0.958810
vn -0.201103 0.648874 -0.733840
vn -0.120804 0.090983 0.988498
vn -0.109620 0.037694 0.993259
vn -0.155391 0.564947 0.810363
vn -0.095641 0.696063 0.711582
vn 0.558470 0.476938 0.678706
vn 0.565334 0.787509 -0.245411
vn 0.793591 0.521817 -0.312922
vn 0.687222 0.547010 0.478023
vn -0.043392 0.415940 -0.908356
vn -0.214711 0.364947 -0.905932
vn -0.220138 0.372871 -0.901391
vn 0.205205 0.503528 -0.839256
vn 0.027004 0.979123 -0.201466
vn 0.274838 0.549084 0.789285
vn 0.414064 0.500166 0.760516
vn -0.253389 0.961715 -0.104397
vn 0.274838 0.549084 0.789285
vn 0.558470 0.476938 0.678706
vn 0.687222 0.547010 0.478023
vn 0.414064 0.500166 0.760516
vn 0.687222 0.547010 0.478023
vn 0.793591 0.521817 -0.312922
vn 0.855447 0.383582 -0.347959
vn 0.545031 0.296401 0.784275
vn 0.205205 0.503528 -0.839256
vn -0.220138 0.372871 -0.901391
vn -0.509012 -0.057451 -0.858840
vn -0.026571 0.098014 -0.994830
vn -0.253389 0.961715 -0.104397
vn 0.414064 0.500166 0.760516
vn 0.110489 0.149549 0.982562
vn -0.954123 -0.169414 0.246875
vn 0.414064 0.500166 0.760516
vn 0.687222 0.547010 0.478023
vn 0.545031 0.296401 0.784275
vn 0.110489 0.149549 0.982562
vn 0.545031 0.296401 0.784275
vn 0.855447 0.383582 -0.347959
vn 0.825953 0.453238 -0.335227
vn 0.438923 0.239828 0.865927
vn -0.026571 0.098014 -0.994830
vn -0.509012 -0.057451 -0.858840
vn -0.545059 -0.173341 -0.820283
vn -0.126236 -0.005709 -0.991984
vn -0.954123 -0.169414 0.246875
vn 0.110489 0.149549 0.982562
vn 0.015337 0.069552 0.997460
vn -0.943268 -0.216509 0.251734
vn 0.110489 0.149549 0.982562
vn 0.545031 0.296401 0.784275
vn 0.438923 0.239828 0.865927
vn 0.015337 0.069552 0.997460
vn 0.031948 -0.059518 0.997716
vn -0.044787 0.154905 0.986914
vn 0.233369 -0.531547 0.814246
vn -0.552895 -0.798977 0.236523
vn -0.044787 0.154905 0.986914
vn 0.141472 0.778627 0.611331
vn 0.558145 0.717536 0.416673
vn 0.233369 -0.531547 0.814246
vn 0.141472 0.778627 0.611331
vn 0.448212 0.763559 0.464847
vn 0.047101 0.998495 0.028082
vn 0.558145 0.717536 0.416673
vn 0.448212 0.763559 0.464847
vn 0.031948 -0.059518 0.997716
vn -0.552895 -0.798977 0.236523
vn 0.047101 0.998495 0.028082
vn -0.552895 -0.798977 0.236523
vn 0.233369 -0.531547 0.814246
vn 0.037282 -0.855150 0.517039
vn -0.694279 -0.717333 0.058393
vn 0.233369 -0.531547 0.814246
vn 0.558145 0.717536 0.416673
vn 0.494512 0.857536 0.141736
vn 0.037282 -0.855150 0.517039
vn 0.558145 0.717536 0.416673
vn 0.047101 0.998495 0.028082
vn -0.287926 0.917445 -0.274579
vn 0.494512 0.857536 0.141736
vn 0.047101 0.998495 0.028082
vn -0.552895 -0.798977 0.236523
vn -0.694279 -0.717333 0.058393
vn -0.287926 0.917445 -0.274579
vn -0.090219 0.995215 0.037514
vn -0.184387 0.631790 -0.752890
vn -0.201103 0.648874 -0.733840
vn -0.051584 0.998370 -0.024411
vn 0.127149 0.987831 -0.089572
vn -0.051584 0.998370 -0.024411
vn -0.201103 0.648874 -0.733840
vn -0.148416 0.632322 -0.760356
vn 0.366134 0.913054 -0.179664
vn 0.127149 0.987831 -0.089572
vn -0.148416 0.632322 -0.760356
vn -0.026518 0.528354 -0.848610
vn 0.565334 0.787509 -0.245411
vn 0.366134 0.913054 -0.179664
vn -0.026518 0.528354 -0.848610
vn -0.043392 0.415940 -0.908356
vn 0.793591 0.521817 -0.312922
vn 0.565334 0.787509 -0.245411
vn -0.043392 0.415940 -0.908356
vn 0.205205 0.503528 -0.839256
vn 0.855447 0.383582 -0.347959
vn 0.793591 0.521817 -0.312922
vn 0.205205 0.503528 -0.839256
vn -0.026571 0.098014 -0.994830
vn 0.825953 0.453238 -0.335227
vn 0.855447 0.383582 -0.347959
vn -0.026571 0.098014 -0.994830
vn -0.126236 -0.005709 -0.991984
vn -0.943268 -0.216509 0.251734
vn 0.825953 0.453238 -0.335227
vn -0.126236 -0.005709 -0.991984
vn -0.545059 -0.173341 -0.820283
vn -0.509012 -0.057451 -0.858840
vn -0.954123 -0.169414 0.246875
vn -0.943268 -0.216509 0.251734
vn -0.545059 -0.173341 -0.820283
vn -0.220138 0.372871 -0.901391
vn -0.253389 0.961715 -0.104397
vn -0.954123 -0.169414 0.246875
vn -0.509012 -0.057451 -0.858840
vn -0.214711 0.364947 -0.905932
vn 0.027004 0.979123 -0.201466
vn -0.253389 0.961715 -0.104397
vn -0.220138 0.372871 -0.901391
vn 0.011161 0.974834 -0.222654
vn 0.027004 0.979123 -0.201466
vn -0.214711 0.364947 -0.905932
vn -0.156132 0.446235 -0.881191
vn -0.227245 0.945095 -0.234850
vn 0.011161 0.974834 -0.222654
vn -0.156132 0.446235 -0.881191
vn -0.228051 0.426432 -0.875299
vn -0.271434 -0.083126 -0.958861
vn -0.978165 0.116287 0.172254
vn -0.227245 0.945095 -0.234850
vn -0.228051 0.426432 -0.875299
vn -0.341774 -0.641414 -0.686861
vn -0.353494 -0.921009 0.163657
vn -0.978165 0.116287 0.172254
vn -0.271434 -0.083126 -0.958861
vn -0.267383 -0.655994 -0.705817
vn -0.164679 -0.967111 0.193848
vn -0.353494 -0.921009 0.163657
vn -0.341774 -0.641414 -0.686861
vn -0.532178 -0.560929 -0.634149
vn -0.420709 -0.870430 0.255647
vn -0.164679 -0.967111 0.193848
vn -0.267383 -0.655994 -0.705817
vn -0.696149 -0.488647 -0.525929
vn -0.621614 -0.735296 0.270066
vn -0.420709 -0.870430 0.255647
vn -0.532178 -0.560929 -0.634149
vn -0.585846 -0.533921 -0.609683
vn -0.525410 -0.831456 0.180626
vn -0.621614 -0.735296 0.270066
vn -0.696149 -0.488647 -0.525929
vn -0.599939 -0.585643 -0.545064
vn -0.465803 -0.877624 0.113156
vn -0.525410 -0.831456 0.180626
vn -0.585846 -0.533921 -0.609683
vn -0.479741 -0.530379 -0.698961
vn -0.506798 -0.858035 0.083255
vn -0.465803 -0.877624 0.113156
vn -0.599939 -0.585643 -0.545064
vn -0.502275 -0.685405 -0.527200
vn -0.527718 -0.843481 0.100268
vn -0.506798 -0.858035 0.083255
vn -0.479741 -0.530379 -0.698961
s off
g pasted__pasted__pasted__group pasted__pasted__pasted__pasted__group4 pasted__pasted__pasted__pasted__pasted__pasted__polySurface432 pasted__pasted__pasted__polySurface431 pasted__pasted__group4 pasted__group9 group
usemtl pasted__pasted__pasted__lambert2SG
f 84/1/1 18/2/2 39/80/3 83/77/4
f 91/81/5 2/84/6 6/37/7 90/36/8
f 2/84/9 48/90/10 33/39/11 6/37/12
f 3/95/13 69/101/14 70/55/15 7/47/16
f 47/78/17 1/79/18 5/46/19 46/76/20
f 90/36/21 6/37/22 22/30/23 89/29/24
f 6/37/25 33/39/26 34/32/27 22/30/28
f 7/47/29 70/55/30 71/49/31 21/48/32
f 46/76/33 5/46/34 23/38/35 45/74/36
f 88/23/37 10/24/38 26/17/39 87/16/40
f 10/24/41 35/26/42 36/19/43 26/17/44
f 11/33/45 72/40/46 73/41/47 25/27/48
f 44/72/49 9/31/50 27/25/51 43/71/52
f 86/9/53 14/10/54 30/4/55 85/3/56
f 14/10/57 37/12/58 38/5/59 30/4/60
f 15/20/61 80/21/62 81/14/63 29/13/64
f 42/70/65 13/18/66 31/11/67 41/73/68
f 22/30/69 34/32/70 35/26/71 10/24/72
f 89/29/73 22/30/74 10/24/75 88/23/76
f 45/74/77 23/38/78 9/31/79 44/72/80
f 21/48/81 71/49/82 72/40/83 11/33/84
f 26/17/85 36/19/86 37/12/87 14/10/88
f 87/16/89 26/17/90 14/10/91 86/9/92
f 43/71/93 27/25/94 13/18/95 42/70/96
f 58/51/97 76/60/98 77/61/99 60/43/100
f 30/4/101 38/5/102 39/80/103 18/2/104
f 85/3/105 30/4/106 18/2/107 84/1/108
f 41/73/109 31/11/110 17/8/111 40/75/112
f 29/13/113 81/14/114 82/7/115 19/6/116
f 33/39/117 7/47/118 21/48/119 34/32/120
f 66/108/121 65/109/122 67/106/123 68/107/124
f 36/19/125 35/26/126 11/33/127 25/27/128
f 37/12/129 36/19/130 25/27/131 15/20/132
f 38/5/133 37/12/134 15/20/135 29/13/136
f 39/80/137 38/5/138 29/13/139 19/6/140
f 83/94/141 39/80/142 19/6/143 82/7/144
f 32/22/145 41/99/146 40/100/147 20/15/148
f 16/28/149 42/98/150 41/99/151 32/22/152
f 28/35/153 43/97/154 42/98/155 16/28/156
f 12/45/157 44/96/158 43/97/159 28/35/160
f 24/54/161 45/102/162 44/96/163 12/45/164
f 8/57/165 46/104/166 45/102/167 24/54/168
f 4/103/169 47/105/170 46/104/171 8/57/172
f 33/39/173 48/90/174 3/95/175 7/47/176
f 25/27/177 73/41/178 74/88/179 50/82/180
f 28/35/181 16/28/182 51/93/183 49/92/184
f 80/21/185 15/20/186 52/83/187 79/89/188
f 15/20/189 25/27/190 50/82/191 52/83/192
f 50/59/193 74/63/194 75/50/195 54/42/196
f 49/65/197 51/67/198 55/44/199 53/53/200
f 79/64/201 52/58/202 56/34/203 78/62/204
f 52/58/205 50/59/206 54/42/207 56/34/208
f 54/42/209 75/50/210 76/60/211 58/51/212
f 53/53/213 55/44/214 59/52/215 57/56/216
f 78/62/217 56/34/218 60/43/219 77/61/220
f 56/34/221 54/42/222 58/51/223 60/43/224
f 35/26/225 34/32/226 61/85/227 62/86/228
f 34/32/229 21/48/230 63/91/231 61/85/232
f 21/48/233 11/33/234 64/87/235 63/91/236
f 11/33/237 35/26/238 62/86/239 64/87/240
f 62/114/241 61/115/242 65/116/243 66/117/244
f 61/110/245 63/111/246 67/106/247 65/109/248
f 63/111/249 64/112/250 68/107/251 67/106/252
f 64/112/253 62/113/254 66/108/255 68/107/256
f 69/101/257 4/103/258 8/57/259 70/55/260
f 71/49/261 70/55/262 8/57/263 24/54/264
f 72/40/265 71/49/266 24/54/267 12/45/268
f 73/41/269 72/40/270 12/45/271 28/35/272
f 74/88/273 73/41/274 28/35/275 49/92/276
f 75/50/277 74/63/278 49/65/279 53/53/280
f 76/60/281 75/50/282 53/53/283 57/56/284
f 77/66/285 76/60/286 57/56/287 59/52/288
f 55/44/289 78/68/290 77/66/291 59/52/292
f 51/67/293 79/69/294 78/68/295 55/44/296
f 16/28/297 80/21/298 79/89/299 51/93/300
f 81/14/301 80/21/302 16/28/303 32/22/304
f 82/7/305 81/14/306 32/22/307 20/15/308
f 40/100/309 83/94/310 82/7/311 20/15/312
f 17/8/313 84/1/314 83/77/315 40/75/316
f 31/11/317 85/3/318 84/1/319 17/8/320
f 13/18/321 86/9/322 85/3/323 31/11/324
f 27/25/325 87/16/326 86/9/327 13/18/328
f 9/31/329 88/23/330 87/16/331 27/25/332
f 23/38/333 89/29/334 88/23/335 9/31/336
f 5/46/337 90/36/338 89/29/339 23/38/340
f 1/79/341 91/81/342 90/36/343 5/46/344
